<?xml version="1.0" encoding="UTF-8"?>
<svg width="301px" height="91px" viewBox="0 0 301 91" version="1.1" xmlns="http://www.w3.org/2000/svg" xmlns:xlink="http://www.w3.org/1999/xlink">
    <!-- Generator: Sketch 48.2 (47327) - http://www.bohemiancoding.com/sketch -->
    <title>logo</title>
    <desc>Created with Sketch.</desc>
    <defs></defs>
    <g id="Page-1" stroke="none" stroke-width="1" fill="none" fill-rule="evenodd">
        <g id="logo" fill-rule="nonzero">
            <rect id="Rectangle-path" fill="#2F5496" x="2.1" y="2.3" width="296.4" height="86.3"></rect>
            <path d="M297,87.1 L3.7,87.1 L3.7,3.7 L297,3.7 L297,87.1 Z M0,90.8 L300.7,90.8 L300.7,0 L0,0 L0,90.8 Z" id="Shape" fill="#FFFFFF"></path>
            <polygon id="Shape" fill="#FFFFFF" points="32.5 57 32.4 29.6 32.4 29 31.9 29 29 29 28.5 29 28.5 29.6 28.5 60.6 28.5 61.1 29 61.1 42.1 61.2 42.6 61.2 42.6 60.6 42.6 57.6 42.6 57 42.1 57"></polygon>
            <path d="M56.5,40 C58.5,40 60.2,40.8 61.8,42.6 C63.4,44.4 64.1,46.4 64.1,48.7 C64.1,51.2 63.3,53.4 61.8,55.2 C60.2,57 58.5,57.8 56.4,57.8 C54.2,57.8 52.4,57 50.9,55.3 C49.4,53.6 48.6,51.5 48.6,49.1 C48.6,46.5 49.4,44.4 50.9,42.6 C52.5,40.8 54.3,40 56.5,40 Z M68,36.6 L67.4,36.6 L64.7,36.6 L64.1,36.6 L64.1,37.2 L64.1,39.3 C63.3,38.5 62.4,37.8 61.4,37.3 C59.9,36.5 58.3,36.1 56.5,36.1 C53.1,36.1 50.2,37.4 47.9,39.8 C45.6,42.3 44.5,45.3 44.5,49 C44.5,52.6 45.6,55.6 47.9,58.1 C50.1,60.6 53,61.8 56.3,61.8 C58.1,61.8 59.8,61.4 61.4,60.6 C62.4,60.1 63.4,59.4 64.1,58.6 L64.1,60.7 L64.1,61.3 L64.7,61.3 L67.4,61.3 L68,61.3 L68,60.7 L68,37.3 L68,36.6 Z" id="Shape" fill="#FFFFFF"></path>
            <path d="M98.3,47.5 L89,47.5 L93.6,34.2 L98.3,47.5 Z M96,29.4 L95.8,29 L95.4,29 L92,29 L91.6,29 L91.5,29.4 L80.3,60.4 L80,61.1 L80.8,61.1 L83.8,61.1 L84.2,61.1 L84.3,60.7 L87.6,51.3 L99.7,51.3 L103,60.7 L103.1,61.1 L103.5,61.1 L106.5,61.1 L107.3,61.1 L107,60.3 L96,29.4 Z" id="Shape" fill="#FFFFFF"></path>
            <path d="M119.8,36.8 L119.8,36.2 L119.2,36.2 C118,36.2 117,36.5 116.1,37 C115.6,37.3 115.2,37.7 114.7,38.1 L114.7,37 L114.7,36.4 L114.1,36.4 L111.4,36.4 L110.8,36.4 L110.8,37 L110.8,60.4 L110.8,61 L111.4,61 L114.3,61 L114.9,61 L114.9,60.4 L114.9,46.3 C114.9,44.3 115.2,42.8 115.9,42 C116.6,41.2 117.7,40.7 119.3,40.5 L119.8,40.5 L119.8,40 L119.8,36.8 Z" id="Shape" fill="#FFFFFF"></path>
            <path d="M133.8,58.1 L133.8,57.8 C131.6,57.8 129.8,57 128.3,55.3 C126.7,53.6 126,51.6 126,49.1 C126,46.5 126.8,44.3 128.3,42.6 C129.8,40.9 131.7,40 133.9,40 C135.9,40 137.7,40.8 139.2,42.6 C140.8,44.3 141.5,46.4 141.5,48.7 C141.5,51.2 140.7,53.4 139.2,55.2 C137.7,57 135.9,57.8 133.8,57.8 L133.8,58.1 Z M145.4,36.6 L144.8,36.6 L142.1,36.6 L141.5,36.6 L141.5,37.2 L141.5,39.3 C140.7,38.5 139.8,37.8 138.8,37.3 C137.3,36.5 135.7,36.1 133.9,36.1 C130.5,36.1 127.6,37.4 125.3,39.8 C123,42.3 121.9,45.4 121.9,49 C121.9,52.6 123,55.6 125.2,58.1 C127.4,60.6 130.3,61.8 133.6,61.8 C135.4,61.8 137.1,61.4 138.7,60.6 C139.7,60.1 140.7,59.4 141.4,58.6 L141.4,60.7 L141.4,61.3 L142,61.3 L144.7,61.3 L145.3,61.3 L145.3,60.7 L145.3,37.3 L145.3,36.6 L145.4,36.6 Z" id="Shape" fill="#FFFFFF"></path>
            <path d="M170,36.6 L169.4,36.6 L166.6,36.6 L166,36.6 L166,37.2 L166,48.7 C166,50.7 165.9,52.1 165.8,52.9 C165.7,53.7 165.4,54.3 165.1,54.9 C164.6,55.8 163.9,56.6 163,57.1 C162.1,57.6 161.1,57.8 160,57.8 C158,57.8 156.5,57.2 155.7,56 C154.8,54.8 154.4,52.6 154.4,49.6 L154.4,37.2 L154.4,36.6 L153.8,36.6 L151,36.6 L150.4,36.6 L150.4,37.2 L150.4,49.4 C150.4,53.7 151.1,56.9 152.6,58.8 C154.1,60.8 156.5,61.8 159.9,61.8 C161.5,61.8 162.8,61.5 163.9,61 C164.6,60.7 165.3,60.2 165.9,59.6 L165.9,60.6 L165.9,61.2 L166.5,61.2 L169.3,61.2 L169.9,61.2 L169.9,60.6 L169.9,37.2 L169.9,36.6 L170,36.6 Z" id="Shape" fill="#FFFFFF"></path>
            <path d="M185.7,39.9 C187.3,39.9 188.7,40.3 189.8,41 C190.9,41.8 191.9,43 192.8,44.6 L193,44.9 L193.3,44.9 L196.4,44.9 L197.2,44.9 L196.9,44.1 C196,41.5 194.5,39.5 192.6,38.1 C190.7,36.7 188.5,35.9 186,35.9 C182.7,35.9 179.8,37.2 177.5,39.7 C175.2,42.2 174,45.3 174,48.9 C174,52.4 175.2,55.5 177.4,58 C179.7,60.5 182.5,61.8 185.8,61.8 C188.4,61.8 190.7,61.1 192.6,59.6 C194.5,58.2 195.9,56.1 196.8,53.4 L197,52.7 L196.2,52.7 L193.1,52.7 L192.7,52.7 L192.6,53 C192,54.5 191,55.7 189.8,56.5 C188.6,57.3 187.2,57.7 185.6,57.7 C183.4,57.7 181.6,56.9 180.2,55.2 C178.7,53.5 178,51.4 178,48.8 C178,46.2 178.7,44.1 180.2,42.4 C181.9,40.7 183.6,39.9 185.7,39.9" id="Shape" fill="#FFFFFF"></path>
            <path d="M212.6,40 C214.6,40 216.4,40.9 217.9,42.6 C219.5,44.4 220.2,46.4 220.2,48.7 C220.2,51.2 219.4,53.4 217.9,55.2 C216.3,57 214.6,57.9 212.5,57.9 C210.3,57.9 208.5,57.1 207,55.4 C205.5,53.7 204.7,51.6 204.7,49.2 C204.7,46.6 205.5,44.4 207,42.7 C208.6,40.8 210.4,40 212.6,40 Z M224.1,36.6 L223.5,36.6 L220.8,36.6 L220.2,36.6 L220.2,37.2 L220.2,39.3 C219.4,38.5 218.5,37.8 217.5,37.3 C216,36.5 214.4,36.1 212.6,36.1 C209.2,36.1 206.3,37.3 204,39.8 C201.7,42.2 200.6,45.3 200.6,49 C200.6,52.6 201.7,55.6 204,58.1 C206.2,60.6 209.1,61.8 212.4,61.8 C214.2,61.8 215.9,61.4 217.5,60.6 C218.5,60.1 219.5,59.4 220.2,58.6 L220.2,60.7 L220.2,61.3 L220.8,61.3 L223.5,61.3 L224.1,61.3 L224.1,60.7 L224.1,37.3 L224.1,36.6 Z" id="Shape" fill="#FFFFFF"></path>
            <path d="M247.3,40.1 C246.5,38.8 245.4,37.8 244.1,37.1 C242.8,36.4 241.3,36.1 239.6,36.1 C238.1,36.1 236.7,36.4 235.5,36.9 C234.7,37.3 234,37.7 233.3,38.4 L233.3,37.2 L233.3,36.6 L232.7,36.6 L230,36.6 L229.4,36.6 L229.4,37.2 L229.4,60.6 L229.4,61.2 L230,61.2 L232.7,61.2 L233.3,61.2 L233.3,60.6 L233.3,49.2 C233.3,47.2 233.4,45.8 233.5,45 C233.6,44.2 233.9,43.6 234.2,43 C234.7,42.1 235.4,41.4 236.3,40.9 C237.2,40.4 238.2,40.2 239.4,40.2 C241.4,40.2 242.8,40.7 243.7,41.9 C244.6,43 245.1,44.9 245.1,47.6 L245.1,60.7 L245.1,61.3 L245.7,61.3 L248.5,61.3 L249.1,61.3 L249.1,60.7 L249.1,48.5 C249.1,46.3 249,44.6 248.8,43.4 C248.2,42 247.8,41 247.3,40.1" id="Shape" fill="#FFFFFF"></path>
            <path d="M264.8,40 C266.8,40 268.6,40.9 270.1,42.6 C271.7,44.4 272.4,46.4 272.5,48.7 C272.5,51.2 271.7,53.4 270.2,55.2 C268.7,57 266.9,57.8 264.8,57.9 C262.6,57.9 260.8,57.1 259.3,55.4 C257.8,53.7 257,51.6 257,49.2 C257,46.6 257.8,44.4 259.3,42.7 C260.7,40.9 262.6,40 264.8,40 Z M276.3,37.2 L276.3,36.6 L275.7,36.6 L273,36.6 L272.4,36.6 L272.4,37.2 L272.4,39.3 C271.6,38.5 270.7,37.8 269.7,37.3 C268.2,36.5 266.6,36.1 264.8,36.1 C261.4,36.1 258.5,37.4 256.2,39.8 C253.9,42.3 252.8,45.3 252.8,49 C252.8,52.6 253.9,55.6 256.2,58.1 C258.4,60.6 261.3,61.8 264.6,61.8 C266.4,61.8 268.1,61.4 269.7,60.6 C270.7,60.1 271.7,59.4 272.4,58.6 L272.4,60.7 L272.4,61.3 L273,61.3 L275.7,61.3 L276.3,61.3 L276.3,60.7 L276.3,37.2 Z" id="Shape" fill="#FFFFFF"></path>
        </g>
    </g>
</svg>